HIERARCHY
ROOT joint_Root
{
	OFFSET 0.0 0.0 0.0
	CHANNELS 6 Xposition Yposition Zposition Zrotation Xrotation Yrotation 
	JOINT Hips
	{
		OFFSET -0.726466 93.3139 -2.00062
		CHANNELS 6 Xposition Yposition Zposition Zrotation Xrotation Yrotation 
		JOINT Spine
		{
			OFFSET 15.7357 0.0 0.0
			CHANNELS 6 Xposition Yposition Zposition Zrotation Xrotation Yrotation 
			JOINT Chest
			{
				OFFSET 8.98455 -0.406207 0.0
				CHANNELS 6 Xposition Yposition Zposition Zrotation Xrotation Yrotation 
				JOINT Neck
				{
					OFFSET 16.3773 0.0 0.0
					CHANNELS 6 Xposition Yposition Zposition Zrotation Xrotation Yrotation 
					JOINT Head
					{
						OFFSET 6.45672 0.0 0.0
						CHANNELS 6 Xposition Yposition Zposition Zrotation Xrotation Yrotation 
						End Site
						{
							OFFSET 0.0 0.0 0.0
						}
					}
				}
				JOINT Shoulder_L
				{
					OFFSET 12.9942 -0.242716 4.98039
					CHANNELS 6 Xposition Yposition Zposition Zrotation Xrotation Yrotation 
					JOINT UpperArm_L
					{
						OFFSET 5.34809 0.0 0.0
						CHANNELS 6 Xposition Yposition Zposition Zrotation Xrotation Yrotation 
						JOINT LowerArm_L
						{
							OFFSET 24.3286 1.87007e-05 0.0
							CHANNELS 6 Xposition Yposition Zposition Zrotation Xrotation Yrotation 
							JOINT Hand_L
							{
								OFFSET 22.2916 0.0 0.0
								CHANNELS 6 Xposition Yposition Zposition Zrotation Xrotation Yrotation 
								End Site
								{
									OFFSET 0.0 0.0 0.0
								}
							}
						}
					}
				}
				JOINT Shoulder_R
				{
					OFFSET 12.9945 -0.242716 -4.98039
					CHANNELS 6 Xposition Yposition Zposition Zrotation Xrotation Yrotation 
					JOINT UpperArm_R
					{
						OFFSET -5.34813 0.0 0.0
						CHANNELS 6 Xposition Yposition Zposition Zrotation Xrotation Yrotation 
						JOINT LowerArm_R
						{
							OFFSET -24.3289 0.000322201 0.0
							CHANNELS 6 Xposition Yposition Zposition Zrotation Xrotation Yrotation 
							JOINT Hand_R
							{
								OFFSET -22.2915 -0.000108084 0.0
								CHANNELS 6 Xposition Yposition Zposition Zrotation Xrotation Yrotation 
								End Site
								{
									OFFSET 0.0 0.0 0.0
								}
							}
						}
					}
				}
			}
		}
		JOINT UpperLeg_L
		{
			OFFSET -2.19248 -6.46944 0.0
			CHANNELS 6 Xposition Yposition Zposition Zrotation Xrotation Yrotation 
			JOINT LowerLeg_L
			{
				OFFSET 39.0811 0.0 -1.23785e-05
				CHANNELS 6 Xposition Yposition Zposition Zrotation Xrotation Yrotation 
				JOINT Foot_L
				{
					OFFSET 40.9854 0.0 -1.26872e-05
					CHANNELS 6 Xposition Yposition Zposition Zrotation Xrotation Yrotation 
					JOINT Toes_L
					{
						OFFSET 11.7543 0.0 0.0
						CHANNELS 6 Xposition Yposition Zposition Zrotation Xrotation Yrotation 
						End Site
						{
							OFFSET 0.0 0.0 0.0
						}
					}
				}
			}
		}
		JOINT UpperLeg_R
		{
			OFFSET -2.19251 6.46944 0.0
			CHANNELS 6 Xposition Yposition Zposition Zrotation Xrotation Yrotation 
			JOINT LowerLeg_R
			{
				OFFSET -39.0811 -0.00228153 -0.0401928
				CHANNELS 6 Xposition Yposition Zposition Zrotation Xrotation Yrotation 
				JOINT Foot_R
				{
					OFFSET -40.9854 0.0 0.0
					CHANNELS 6 Xposition Yposition Zposition Zrotation Xrotation Yrotation 
					JOINT Toes_R
					{
						OFFSET -11.7543 0.0 0.0
						CHANNELS 6 Xposition Yposition Zposition Zrotation Xrotation Yrotation 
						End Site
						{
							OFFSET 0.0 0.0 0.0
						}
					}
				}
			}
		}
	}
}
MOTION
Frames:	8
Frame Time:	0.0333333
0.000000 0.000000 0.000000 0.000000 0.000000 -0.000000 1.879820 93.110200 -1.230620 88.201000 -9.932150 0.462263 15.735700 0.000005 -0.000001 104.480000 87.190500 -104.608000 8.984550 -0.406207 -0.000000 -2.324210 1.415800 -0.226648 16.377300 -0.000001 -0.000001 1.650120 -0.018737 3.570570 6.456720 -0.000001 -0.000000 3.991650 1.906090 -6.131680 12.994200 -0.242716 4.980390 -90.322800 0.898736 -70.242900 5.348090 -0.000007 -0.000001 -70.153500 34.984600 -8.570970 24.328600 0.000019 0.000005 3.716890 9.223180 -22.062900 22.291600 -0.000001 0.000005 4.387000 5.490740 -6.164720 12.994500 -0.242716 -4.980390 88.761500 3.632300 -71.158400 -5.348130 -0.000001 -0.000004 -69.937700 -16.413200 -75.608000 -24.328900 0.000322 -0.000009 20.019100 -8.140760 -111.239000 -22.291500 -0.000108 -0.000004 20.898500 5.236720 1.781210 -2.192480 -6.469440 -0.000000 -177.637000 -11.646600 -2.726090 39.081100 -0.000007 -0.000012 -0.051633 0.176200 16.332400 40.985400 -0.000006 -0.000013 0.227069 -1.049500 -63.124600 11.754300 -0.000000 0.000003 -0.000000 -0.000000 -16.577500 -2.192510 6.469440 -0.000001 178.430000 6.639590 178.983000 -39.081100 -0.002282 -0.040193 0.003238 0.000452 12.158400 -40.985400 0.000008 0.000006 2.351120 10.489300 -61.310000 -11.754300 -0.000006 -0.000006 -0.004107 -0.052546 -18.710600
0.000000 0.000000 0.000000 0.000000 0.000000 -0.000000 1.832840 93.112400 -1.198080 88.245300 -9.760690 0.452809 15.735700 0.000005 -0.000001 104.325000 87.184700 -104.464000 8.984550 -0.406207 -0.000000 -2.309110 1.404910 -0.249599 16.377300 -0.000001 -0.000001 1.645130 -0.013666 3.603210 6.456720 -0.000001 -0.000000 4.063100 1.871070 -6.152750 12.994200 -0.242716 4.980390 -90.311500 0.866086 -70.220700 5.348090 -0.000007 -0.000001 -70.323000 34.951700 -8.252500 24.328600 0.000019 0.000005 3.718750 9.319460 -21.868300 22.291600 -0.000001 0.000005 4.384790 5.489140 -6.102120 12.994500 -0.242716 -4.980390 88.742800 3.664980 -71.051500 -5.348130 -0.000001 -0.000004 -69.717800 -16.553900 -75.840900 -24.328900 0.000322 -0.000009 20.148500 -8.120930 -111.057000 -22.291500 -0.000108 -0.000004 20.812500 5.240220 1.689810 -2.192480 -6.469440 -0.000000 -177.649000 -11.523900 -2.694030 39.081100 -0.000007 -0.000012 -0.051575 0.176941 16.250200 40.985400 -0.000006 -0.000013 0.200522 -1.002110 -63.091500 11.754300 -0.000000 0.000003 -0.000000 -0.000000 -16.577500 -2.192510 6.469440 -0.000001 178.415000 6.766900 179.004000 -39.081100 -0.002282 -0.040193 0.002464 0.004043 12.161000 -40.985400 0.000008 0.000006 2.345380 10.417600 -61.339200 -11.754300 -0.000006 -0.000006 -0.004186 -0.053360 -18.743800
0.000000 0.000000 0.000000 0.000000 0.000000 -0.000000 1.775450 93.119400 -1.181790 88.250400 -9.641630 0.421339 15.735700 0.000005 -0.000001 104.460000 87.190600 -104.599000 8.984550 -0.406207 -0.000000 -2.323740 1.414860 -0.249685 16.377300 -0.000001 -0.000001 1.687870 -0.033070 3.614580 6.456720 -0.000001 -0.000000 4.123160 1.840560 -6.141040 12.994200 -0.242716 4.980390 -90.306800 0.850641 -70.165400 5.348090 -0.000007 -0.000001 -70.442900 34.906800 -7.960460 24.328600 0.000019 0.000005 3.736970 9.422940 -21.748900 22.291600 -0.000001 0.000005 4.435050 5.487030 -6.019600 12.994500 -0.242716 -4.980390 88.763600 3.597130 -71.017200 -5.348130 -0.000001 -0.000004 -69.550700 -16.710900 -75.842000 -24.328900 0.000322 -0.000009 20.107800 -8.064780 -110.967000 -22.291500 -0.000108 -0.000004 20.887300 5.236490 1.786940 -2.192480 -6.469440 -0.000000 -177.619000 -11.458200 -2.685220 39.081100 -0.000007 -0.000012 -0.052509 0.181064 16.172200 40.985400 -0.000006 -0.000013 0.170123 -0.954629 -63.051900 11.754300 -0.000000 0.000003 -0.000000 -0.000006 -16.577700 -2.192510 6.469440 -0.000001 178.455000 6.797810 179.051000 -39.081100 -0.002282 -0.040193 0.003682 -0.001623 12.072900 -40.985400 0.000008 0.000006 2.411360 10.360200 -61.340400 -11.754300 -0.000006 -0.000006 -0.004052 -0.051985 -18.687700
0.000000 0.000000 0.000000 0.000000 0.000000 -0.000000 1.726120 93.111200 -1.158330 88.276000 -9.515410 0.388038 15.735700 0.000005 -0.000001 104.564000 87.184800 -104.708000 8.984550 -0.406207 -0.000000 -2.314960 1.428090 -0.259633 16.377300 -0.000001 -0.000001 1.681710 -0.075925 3.632980 6.456720 -0.000001 -0.000000 4.192530 1.789090 -6.160400 12.994200 -0.242716 4.980390 -90.312300 0.865245 -70.152400 5.348090 -0.000007 -0.000001 -70.524700 34.764200 -7.761240 24.328600 0.000019 0.000005 3.750380 9.525950 -21.607600 22.291600 -0.000001 0.000005 4.448920 5.486590 -6.002530 12.994500 -0.242716 -4.980390 88.758600 3.598920 -70.954500 -5.348130 -0.000001 -0.000004 -69.168100 -16.879800 -75.703900 -24.328900 0.000322 -0.000009 19.832700 -7.917590 -110.903000 -22.291500 -0.000108 -0.000004 21.021600 5.235670 1.808260 -2.192480 -6.469440 -0.000000 -177.621000 -11.267400 -2.741060 39.081100 -0.000007 -0.000012 -0.052398 0.180147 16.217700 40.985400 -0.000006 -0.000013 0.121500 -1.017440 -63.078700 11.754300 -0.000000 0.000003 -0.000035 -0.000586 -16.601200 -2.192510 6.469440 -0.000001 178.451000 6.916870 179.003000 -39.081100 -0.002282 -0.040193 0.001614 0.007992 12.157300 -40.985400 0.000008 0.000006 2.324330 10.322300 -61.388000 -11.754300 -0.000006 -0.000006 -0.004228 -0.053791 -18.761300
0.000000 0.000000 0.000000 0.000000 0.000000 -0.000000 1.676020 93.122300 -1.142930 88.293400 -9.352210 0.363815 15.735700 0.000005 -0.000001 104.340000 87.185800 -104.478000 8.984550 -0.406207 -0.000000 -2.311570 1.405750 -0.249241 16.377300 -0.000001 -0.000001 1.737450 -0.101634 3.657130 6.456720 -0.000001 -0.000000 4.244070 1.740030 -6.190830 12.994200 -0.242716 4.980390 -90.329500 0.911893 -70.133700 5.348090 -0.000007 -0.000001 -70.537100 34.708800 -7.627000 24.328600 0.000019 0.000005 3.758250 9.583380 -21.532200 22.291600 -0.000001 0.000005 4.490090 5.484820 -5.933880 12.994500 -0.242716 -4.980390 88.757000 3.601580 -70.945000 -5.348130 -0.000001 -0.000004 -68.429100 -17.094400 -75.109100 -24.328900 0.000322 -0.000009 19.633500 -7.824230 -110.887000 -22.291500 -0.000108 -0.000004 21.014100 5.237540 1.759910 -2.192480 -6.469440 -0.000000 -177.612000 -11.044400 -2.710670 39.081100 -0.000007 -0.000012 -0.052543 0.182173 16.088700 40.985400 -0.000006 -0.000013 0.091620 -0.998710 -63.008700 11.754300 -0.000000 0.000003 -0.000000 -0.000003 -16.577600 -2.192510 6.469440 -0.000001 178.481000 7.038290 179.067000 -39.081100 -0.002282 -0.040193 0.002722 0.002871 12.052800 -40.985400 0.000008 0.000006 2.444410 10.258000 -61.390600 -11.754300 -0.000006 -0.000006 -0.004010 -0.051549 -18.670000
0.000000 0.000000 0.000000 0.000000 0.000000 -0.000000 1.619710 93.108500 -1.123920 88.296900 -9.168220 0.391213 15.735700 0.000005 -0.000001 104.400000 87.152900 -104.534000 8.984550 -0.406207 -0.000000 -2.249360 1.427390 -0.240162 16.377300 -0.000001 -0.000001 1.739040 -0.169815 3.709840 6.456720 -0.000001 -0.000000 4.240230 1.660100 -6.164200 12.994200 -0.242716 4.980390 -90.328400 0.909500 -70.146600 5.348090 -0.000007 -0.000001 -70.543400 34.720400 -7.714700 24.328600 0.000019 0.000005 3.763410 9.688760 -21.347800 22.291600 -0.000001 0.000005 4.471500 5.485520 -5.961070 12.994500 -0.242716 -4.980390 88.751100 3.633150 -71.014400 -5.348130 -0.000001 -0.000004 -67.227400 -17.546500 -73.831700 -24.328900 0.000322 -0.000009 19.333300 -7.755490 -111.038000 -22.291500 -0.000108 -0.000004 20.754500 5.238120 1.744560 -2.192480 -6.469440 -0.000000 -177.564000 -11.026600 -2.752950 39.081100 -0.000007 -0.000012 -0.052708 0.181138 16.224100 40.985400 -0.000006 -0.000013 0.077895 -0.848034 -63.073100 11.754300 -0.000000 0.000003 -0.000006 -0.000099 -16.581500 -2.192510 6.469440 -0.000001 178.498000 7.149510 179.066000 -39.081100 -0.002282 -0.040193 0.001221 0.009799 12.177000 -40.985400 0.000008 0.000006 2.367620 10.195200 -61.462900 -11.754300 -0.000006 -0.000006 -0.004020 -0.051649 -18.674100
0.000000 0.000000 0.000000 0.000000 0.000000 -0.000000 1.576500 93.120800 -1.124540 88.334400 -8.873370 0.398036 15.735700 0.000005 -0.000001 104.053000 87.141000 -104.189000 8.984550 -0.406207 -0.000000 -2.217820 1.399870 -0.244140 16.377300 -0.000001 -0.000001 1.736630 -0.254876 3.722950 6.456720 -0.000001 -0.000000 4.261410 1.599130 -6.077060 12.994200 -0.242716 4.980390 -90.341900 0.943751 -70.086100 5.348090 -0.000007 -0.000001 -70.487400 34.710100 -7.856460 24.328600 0.000019 0.000005 3.769180 9.687850 -21.379500 22.291600 -0.000001 0.000005 4.521340 5.484380 -5.916910 12.994500 -0.242716 -4.980390 88.709800 3.737960 -70.941600 -5.348130 -0.000001 -0.000004 -65.259100 -17.721400 -71.664200 -24.328900 0.000322 -0.000009 18.417400 -7.388620 -111.116000 -22.291500 -0.000108 -0.000004 20.603200 5.246770 1.517960 -2.192480 -6.469440 -0.000000 -177.564000 -10.879200 -2.705790 39.081100 -0.000007 -0.000012 -0.053176 0.184468 16.080200 40.985400 -0.000006 -0.000013 0.071789 -0.707180 -62.980500 11.754300 -0.000000 0.000003 -0.000000 -0.000005 -16.577700 -2.192510 6.469440 -0.000001 178.511000 7.309760 179.145000 -39.081100 -0.002282 -0.040193 0.002968 0.001715 12.099400 -40.985400 0.000008 0.000006 2.515450 10.053000 -61.481400 -11.754300 -0.000006 -0.000006 -0.004076 -0.052230 -18.697700
0.000000 0.000000 0.000000 0.000000 0.000000 -0.000000 1.517920 93.113200 -1.114340 88.371600 -8.519770 0.418494 15.735700 0.000005 -0.000001 103.332000 87.125600 -103.477000 8.984550 -0.406207 -0.000000 -2.170750 1.337800 -0.263588 16.377300 -0.000001 -0.000001 1.719970 -0.356716 3.806940 6.456720 -0.000001 -0.000000 4.274780 1.539030 -5.941370 12.994200 -0.242716 4.980390 -90.348500 0.961348 -70.073800 5.348090 -0.000007 -0.000001 -70.464800 34.608900 -7.988540 24.328600 0.000019 0.000005 3.730860 9.500650 -21.556700 22.291600 -0.000001 0.000005 4.562740 5.486600 -6.003040 12.994500 -0.242716 -4.980390 88.672200 3.841570 -70.916900 -5.348130 -0.000001 -0.000004 -62.491600 -17.463300 -68.179600 -24.328900 0.000322 -0.000009 16.754700 -6.732230 -111.276000 -22.291500 -0.000108 -0.000004 20.503400 5.247350 1.502720 -2.192480 -6.469440 -0.000000 -177.567000 -10.593300 -2.751000 39.081100 -0.000007 -0.000012 -0.052571 0.181673 16.138900 40.985400 -0.000006 -0.000013 0.050058 -0.643005 -62.987400 11.754300 -0.000000 0.000003 -0.000035 -0.000579 -16.601000 -2.192510 6.469440 -0.000001 178.510000 7.496310 179.156000 -39.081100 -0.002282 -0.040193 0.001285 0.009480 12.201400 -40.985400 0.000008 0.000006 2.483670 9.861390 -61.557200 -11.754300 -0.000006 -0.000006 -0.004132 -0.052808 -18.721300
